<?xml version="1.0" standalone="no"?>
<!DOCTYPE svg PUBLIC "-//W3C//DTD SVG 20010904//EN"
 "http://www.w3.org/TR/2001/REC-SVG-20010904/DTD/svg10.dtd">
<svg version="1.0" xmlns="http://www.w3.org/2000/svg"
 width="500.000000pt" height="500.000000pt" viewBox="0 0 500.000000 500.000000"
 preserveAspectRatio="xMidYMid meet">
<metadata>
Created by potrace 1.14, written by Peter Selinger 2001-2017
</metadata>
<g transform="translate(0.000000,500.000000) scale(0.100000,-0.100000)"
fill="#000000" stroke="none">
<path d="M2057 4054 c-1 -1 -22 -4 -47 -8 -93 -12 -119 -17 -159 -31 -23 -8
-41 -12 -41 -10 0 2 -12 -2 -27 -10 -15 -8 -30 -12 -35 -9 -4 3 -8 0 -8 -7 0
-7 -3 -9 -6 -6 -4 3 -16 1 -28 -5 -11 -7 -24 -11 -28 -10 -5 1 -8 -2 -8 -6 0
-5 -18 -15 -40 -22 -22 -7 -40 -16 -40 -20 0 -4 -18 -15 -40 -25 -22 -10 -40
-23 -40 -28 0 -6 -3 -8 -6 -4 -3 3 -11 2 -18 -3 -108 -87 -150 -124 -196 -173
-70 -75 -140 -169 -134 -179 3 -4 1 -8 -5 -8 -5 0 -25 -30 -44 -67 -19 -38
-43 -86 -55 -108 -11 -22 -28 -58 -37 -80 -10 -22 -28 -62 -41 -89 -13 -28
-24 -56 -24 -63 0 -8 -4 -12 -8 -9 -4 2 -8 -3 -9 -12 -1 -9 -17 -56 -36 -103
-40 -99 -61 -181 -83 -329 -7 -47 -7 -267 -1 -310 3 -14 8 -47 12 -75 9 -65
52 -219 74 -270 28 -63 34 -79 33 -87 -1 -5 3 -8 10 -8 6 0 8 -3 5 -6 -6 -7
40 -94 56 -105 5 -3 8 -9 8 -13 -3 -20 0 -26 9 -21 6 3 10 1 10 -6 0 -21 113
-169 185 -241 69 -70 205 -178 224 -178 5 0 11 -4 13 -8 4 -12 206 -112 224
-112 8 0 22 -4 32 -9 31 -18 121 -43 131 -37 5 4 11 2 13 -3 3 -10 55 -20 128
-26 25 -2 45 -4 45 -5 0 -4 308 -13 350 -11 6 1 93 3 195 5 212 6 211 5 228
19 8 6 12 6 12 -1 0 -6 37 -1 93 14 50 14 100 27 109 29 9 2 26 9 37 15 12 6
21 8 21 5 0 -8 189 78 230 105 14 9 45 30 70 46 25 16 58 40 74 54 71 60 122
107 140 129 11 13 29 33 41 45 18 19 105 141 142 201 42 67 126 260 139 318 1
4 2 8 4 10 2 2 6 20 14 57 3 14 8 36 12 50 8 35 15 79 18 116 1 16 6 36 10 42
4 7 3 12 -3 12 -7 0 -7 9 -3 23 7 17 8 182 2 182 0 0 -3 28 -5 63 -2 34 -9 72
-16 83 -8 16 -8 20 1 14 9 -6 9 -2 1 14 -7 12 -9 26 -6 31 3 6 1 10 -5 10 -6
0 -8 5 -5 10 3 6 3 16 -2 23 -7 11 -9 17 -16 52 -2 8 -6 18 -10 21 -4 4 -7 14
-7 23 0 21 -76 182 -124 261 -74 123 -206 275 -301 345 -22 17 -49 38 -59 48
-11 9 -23 17 -27 17 -4 0 -14 6 -21 13 -7 6 -35 23 -61 37 -26 13 -47 28 -47
32 0 5 -3 7 -7 6 -5 -1 -42 12 -84 29 -91 39 -225 77 -244 69 -8 -3 -15 -1
-17 3 -6 14 -145 117 -177 131 -17 7 -31 16 -31 21 0 5 -3 8 -7 8 -15 -3 -73
23 -73 32 0 5 -3 8 -7 7 -5 -1 -46 10 -93 25 -47 14 -103 28 -125 32 -22 3
-53 8 -70 11 -30 5 -253 12 -258 8z m483 -769 c6 -4 23 -8 38 -11 26 -4 56
-15 95 -36 10 -5 22 -6 27 -3 6 4 10 2 10 -4 0 -6 11 -13 25 -17 14 -3 25 -10
25 -15 0 -5 7 -9 15 -9 8 0 15 -5 15 -12 0 -6 2 -9 5 -6 8 7 45 -23 119 -97
80 -80 100 -107 135 -181 33 -72 60 -157 65 -204 2 -25 5 -45 6 -45 2 0 3 -39
4 -87 1 -49 -1 -88 -5 -88 -3 0 -5 -10 -4 -22 1 -13 -4 -44 -11 -71 -7 -26
-13 -51 -14 -55 -5 -32 -14 -52 -21 -52 -5 0 -8 -3 -7 -7 3 -15 -31 -83 -41
-83 -6 0 -11 -7 -11 -15 0 -19 -148 -175 -165 -175 -7 0 -15 -6 -18 -12 -3 -7
-22 -22 -43 -33 -22 -11 -45 -26 -52 -32 -7 -7 -18 -14 -23 -14 -19 -3 -24 -4
-34 -10 -11 -7 -73 -28 -101 -34 -10 -2 -34 -8 -51 -14 -23 -7 -33 -6 -33 1 0
7 -4 7 -13 0 -14 -12 -193 -13 -217 -1 -8 4 -39 12 -68 19 -57 13 -153 56
-164 74 -4 6 -8 7 -8 3 0 -21 -162 117 -210 179 -97 125 -150 281 -151 439 -1
208 67 376 210 523 33 34 61 59 61 56 0 -4 10 2 23 12 66 59 228 130 322 141
22 2 41 6 43 8 6 5 212 -4 222 -10z"/>
<path d="M2240 3025 c-36 -12 -79 -29 -95 -38 -73 -39 -217 -210 -200 -237 3
-5 1 -10 -4 -12 -5 -1 -12 -16 -15 -33 -2 -16 -8 -41 -11 -55 -7 -27 -8 -145
-2 -170 2 -8 7 -32 12 -52 4 -21 11 -38 16 -38 5 0 8 -4 7 -8 -6 -16 44 -99
85 -143 42 -45 113 -102 120 -97 2 2 11 -3 20 -10 8 -7 46 -22 84 -33 123 -36
268 -18 379 47 81 48 183 162 176 197 -1 4 2 7 7 7 9 0 26 42 36 89 3 11 7 31
10 44 7 28 8 155 1 166 -3 4 -8 21 -10 38 -3 16 -13 48 -23 69 -9 21 -16 42
-15 47 1 4 -3 7 -10 7 -6 0 -9 3 -5 6 13 14 -119 146 -177 177 -23 11 -43 22
-46 22 -3 1 -12 4 -20 7 -101 35 -224 36 -320 3z"/>
</g>
</svg>
